# xmcd
# 
# Track frame offsets:
#     150
#     18045
#     32804
#     79859
#     95928
#     120161
#     144201
#     160690
# 
# Disc length: 2558
# 
# Revision: 1
# Processed by: cddbd v1.5.2PL0 Copyright (c) Steve Scherf et al.
# Submitted via: BonkEnc v1.0.8
# 
DISCID=5409fc08
DTITLE=Les McCann - Another Beginning
DYEAR=1973
DGENRE=Soul Jazz
TTITLE0=Maybe You'll Come Back
TTITLE1=The Song Of Love
TTITLE2=When It's Over
TTITLE3=Somebody's Been Lying 'Bout Me
TTITLE4=Go On And Cry
TTITLE5=My Soul Lies Deep
TTITLE6=The Morning Song
TTITLE7=Someday We'll Meet Again
EXTD=YEAR: 1998
EXTT0=
EXTT1=
EXTT2=
EXTT3=
EXTT4=
EXTT5=
EXTT6=
EXTT7=
PLAYORDER=
